<?xml version="1.0" standalone="no"?>
<!DOCTYPE svg PUBLIC "-//W3C//DTD SVG 20010904//EN"
 "http://www.w3.org/TR/2001/REC-SVG-20010904/DTD/svg10.dtd">
<svg version="1.0" xmlns="http://www.w3.org/2000/svg"
 width="314.000000pt" height="314.000000pt" viewBox="0 0 314.000000 314.000000"
 preserveAspectRatio="xMidYMid meet">
<metadata>
Created by potrace 1.11, written by Peter Selinger 2001-2013
</metadata>
<g transform="translate(0.000000,314.000000) scale(0.100000,-0.100000)"
fill="#000000" stroke="none">
<path d="M0 1570 l0 -1570 1570 0 1570 0 0 1570 0 1570 -1570 0 -1570 0 0
-1570z m3070 0 l0 -1500 -1500 0 -1500 0 0 1500 0 1500 1500 0 1500 0 0 -1500z"/>
<path d="M1270 1965 l0 -65 70 0 70 0 0 65 0 65 -70 0 -70 0 0 -65z"/>
<path d="M1618 1847 c-25 -7 -58 -21 -73 -31 -29 -19 -64 -87 -65 -123 0 -22
4 -23 65 -23 60 0 66 2 75 24 11 31 39 46 84 46 34 0 76 -27 76 -48 0 -23 -43
-41 -129 -55 -140 -23 -186 -65 -186 -170 0 -76 25 -117 85 -141 61 -24 110
-20 175 14 55 29 57 29 62 10 5 -18 14 -20 84 -20 44 0 79 3 79 8 0 4 -7 16
-15 26 -12 16 -15 57 -15 195 0 208 -7 232 -81 269 -57 28 -157 37 -221 19z
m152 -356 c-12 -47 -48 -71 -103 -71 -40 0 -59 19 -59 56 0 38 21 54 98 72 80
20 84 16 64 -57z"/>
<path d="M1270 1556 c0 -156 -3 -291 -6 -300 -4 -10 -18 -16 -35 -16 -29 0
-29 0 -29 -61 l0 -61 65 4 c76 5 114 27 132 79 8 23 12 129 12 337 l1 302 -70
0 -70 0 0 -284z"/>
</g>
</svg>
